<?xml version="1.0" standalone="no"?>
<!DOCTYPE svg PUBLIC "-//W3C//DTD SVG 20010904//EN"
 "http://www.w3.org/TR/2001/REC-SVG-20010904/DTD/svg10.dtd">
<svg version="1.0" xmlns="http://www.w3.org/2000/svg"
 width="512.000000pt" height="512.000000pt" viewBox="0 0 512.000000 512.000000"
 preserveAspectRatio="xMidYMid meet">

<g transform="translate(0.000000,512.000000) scale(0.100000,-0.100000)"
fill="#000000" stroke="none">
<path d="M1290 4323 c0 -4 16 -18 35 -31 36 -23 45 -19 23 10 -14 18 -58 34
-58 21z"/>
<path d="M1386 4236 c7 -20 35 -29 48 -16 6 6 16 4 30 -8 21 -17 21 -17 2 5
-14 17 -23 20 -36 13 -13 -7 -20 -6 -24 5 -3 8 -10 15 -15 15 -6 0 -8 -6 -5
-14z"/>
<path d="M3530 4210 c-14 -10 -22 -21 -19 -25 4 -3 20 5 35 19 34 30 21 35
-16 6z"/>
<path d="M1447 4179 c11 -12 27 -19 34 -16 10 4 7 8 -8 12 -13 4 -23 11 -23
16 0 5 -5 9 -12 9 -7 0 -3 -9 9 -21z"/>
<path d="M1500 4186 c0 -2 8 -10 18 -17 15 -13 16 -12 3 4 -13 16 -21 21 -21
13z"/>
<path d="M3484 4171 c8 -13 -21 -34 -35 -25 -8 5 -9 3 -4 -6 6 -9 4 -12 -6 -8
-8 3 -24 -1 -34 -9 -17 -12 -18 -15 -5 -23 13 -8 12 -11 -5 -24 -11 -8 -18
-17 -15 -19 3 -3 33 21 68 53 48 44 59 59 47 64 -9 3 -14 2 -11 -3z m-62 -63
c-7 -7 -12 -8 -12 -2 0 6 3 14 7 17 3 4 9 5 12 2 2 -3 -1 -11 -7 -17z"/>
<path d="M1495 4140 c-3 -5 -1 -10 4 -10 6 0 11 5 11 10 0 6 -2 10 -4 10 -3 0
-8 -4 -11 -10z"/>
<path d="M1572 4098 c-15 -15 -16 -32 -2 -23 6 3 10 -1 10 -9 0 -8 8 -20 18
-25 16 -9 18 -6 14 20 -2 17 -9 26 -15 22 -6 -4 -8 0 -4 10 7 20 -4 22 -21 5z"/>
<path d="M3348 4036 c-19 -14 -23 -26 -10 -26 4 0 13 9 20 20 14 23 13 24 -10
6z"/>
<path d="M1640 4008 c0 -9 5 -20 10 -23 13 -8 13 5 0 25 -8 13 -10 13 -10 -2z"/>
<path d="M3290 3975 c-8 -9 -8 -15 -2 -15 12 0 26 19 19 26 -2 2 -10 -2 -17
-11z"/>
<path d="M1696 3951 c-3 -4 3 -16 14 -26 20 -18 20 -17 18 8 -2 26 -21 36 -32
18z"/>
<path d="M3252 3935 c-7 -8 -9 -15 -4 -15 5 0 15 7 22 15 16 19 -1 19 -18 0z"/>
<path d="M1743 3906 c-9 -11 -8 -19 5 -37 27 -39 41 -51 53 -43 8 5 9 3 5 -5
-7 -10 25 -91 65 -163 5 -10 9 -25 9 -33 0 -9 11 -40 24 -68 13 -29 30 -79 37
-112 7 -33 16 -64 20 -70 4 -5 7 -41 8 -78 1 -72 13 -107 36 -107 8 0 15 -4
15 -8 0 -5 18 -20 40 -35 46 -30 47 -26 24 58 -7 28 -12 38 -10 23 2 -21 -1
-28 -14 -28 -18 0 -30 25 -23 48 3 6 10 9 16 5 7 -4 6 1 -2 10 -11 14 -11 18
3 23 9 3 13 10 10 15 -3 5 -9 7 -14 4 -12 -8 -38 55 -32 79 5 18 8 15 18 -19
7 -22 13 -31 13 -20 1 11 -8 45 -19 75 -11 30 -20 56 -20 58 0 2 -5 0 -12 -4
-7 -4 -8 -3 -4 5 4 7 4 20 0 29 -4 9 -8 22 -10 27 -8 33 -27 68 -31 57 -3 -7
1 -19 8 -28 9 -11 9 -18 1 -26 -9 -9 -12 -6 -12 13 0 19 -2 21 -11 9 -8 -12
-9 -10 -4 9 5 16 4 21 -4 17 -12 -8 -14 4 -5 28 3 9 11 13 16 9 6 -3 -2 18
-18 47 -17 30 -39 56 -54 62 -14 6 -20 12 -12 15 6 3 12 9 12 14 0 4 -6 6 -14
3 -10 -4 -13 0 -10 13 5 17 -12 47 -65 120 -19 26 -22 27 -38 9z m27 -27 c0
-6 -4 -7 -10 -4 -5 3 -10 11 -10 16 0 6 5 7 10 4 6 -3 10 -11 10 -16z m153
-234 c4 -8 2 -17 -3 -20 -6 -4 -10 3 -10 14 0 25 6 27 13 6z m147 -465 c0 -5
-5 -10 -11 -10 -5 0 -7 5 -4 10 3 6 8 10 11 10 2 0 4 -4 4 -10z"/>
<path d="M3185 3900 c-3 -5 -1 -10 4 -10 6 0 11 5 11 10 0 6 -2 10 -4 10 -3 0
-8 -4 -11 -10z"/>
<path d="M3220 3895 c0 -8 -7 -15 -16 -15 -8 0 -12 -5 -9 -11 5 -7 14 -4 26 7
21 19 25 34 9 34 -5 0 -10 -7 -10 -15z"/>
<path d="M3170 3852 c0 -6 -6 -9 -13 -6 -9 3 -25 -18 -45 -60 -18 -36 -32 -67
-32 -69 0 -1 11 -4 24 -5 20 -1 29 7 47 46 13 26 22 53 21 61 -2 7 1 10 7 7
16 -10 22 11 6 24 -10 8 -15 9 -15 2z m-29 -70 c-11 -23 -25 -43 -30 -46 -5
-3 3 16 18 43 31 59 42 61 12 3z"/>
<path d="M3041 3644 c-6 -15 -9 -29 -7 -32 3 -2 10 8 16 23 14 36 7 43 -9 9z"/>
<path d="M3080 3627 c-14 -23 -25 -49 -25 -58 -1 -9 -6 -23 -12 -31 -7 -7 -14
-27 -17 -43 -2 -17 -5 -32 -5 -35 -1 -3 -5 1 -10 8 -5 8 -7 -1 -6 -25 2 -21
-2 -41 -9 -45 -8 -6 -7 -10 3 -17 10 -6 11 -13 2 -27 -10 -18 -10 -18 -11 4 0
12 -4 22 -10 22 -16 0 -12 22 7 35 10 7 13 17 8 25 -16 26 -32 -31 -30 -109 2
-61 0 -71 -8 -51 l-10 25 -4 -23 c-3 -12 1 -36 9 -52 11 -25 14 -27 20 -12 5
14 7 13 7 -6 1 -13 5 -20 11 -17 6 4 8 10 5 15 -8 12 23 33 37 24 7 -4 5 2 -5
13 -9 11 -14 22 -11 26 3 3 8 25 10 49 4 52 8 70 16 83 3 6 5 29 4 52 0 22 2
39 7 36 4 -2 7 7 7 21 0 14 4 26 9 26 10 0 44 106 39 121 -2 4 -14 -11 -28
-34z"/>
<path d="M3013 3573 c-7 -15 -11 -29 -8 -31 3 -3 5 0 5 7 0 7 6 11 13 8 10 -4
13 2 9 19 -2 13 -5 24 -6 24 0 0 -7 -12 -13 -27z"/>
<path d="M2991 3504 c0 -11 3 -14 6 -6 3 7 2 16 -1 19 -3 4 -6 -2 -5 -13z"/>
<path d="M3056 3344 c2 -20 6 -39 8 -42 3 -3 4 11 3 31 -2 20 -6 39 -9 42 -3
4 -4 -10 -2 -31z"/>
<path d="M2046 3227 c3 -10 9 -15 12 -12 3 3 0 11 -7 18 -10 9 -11 8 -5 -6z"/>
<path d="M2939 3187 c6 -8 7 -18 3 -22 -4 -5 -2 -5 5 -1 14 8 6 36 -9 36 -7 0
-6 -5 1 -13z"/>
<path d="M2862 2848 c-21 -21 -14 -25 46 -31 31 -3 67 -8 80 -12 35 -11 17 20
-23 39 -39 19 -86 21 -103 4z"/>
<path d="M2127 2805 c-20 -14 -37 -30 -37 -35 0 -13 1 -13 43 5 20 8 55 15 77
15 38 0 40 2 30 20 -15 28 -67 26 -113 -5z"/>
<path d="M2888 2570 c-31 -19 -58 -68 -69 -125 -15 -82 -11 -86 53 -64 31 11
82 18 121 19 l69 0 -7 43 c-9 54 -28 90 -61 116 -28 22 -78 27 -106 11z m22
-46 c0 -15 -22 -44 -35 -44 -21 0 -28 19 -15 35 12 14 50 21 50 9z"/>
<path d="M2135 2526 c-24 -24 -45 -82 -45 -123 0 -19 5 -23 33 -23 19 0 69 -9
112 -20 104 -27 107 -24 80 68 -21 71 -71 122 -119 122 -25 0 -44 -7 -61 -24z
m49 -15 c10 -16 -5 -41 -25 -41 -21 0 -25 20 -7 38 14 14 25 15 32 3z"/>
<path d="M2553 2323 c4 -6 -8 -9 -28 -8 -19 2 -55 -2 -80 -7 -44 -9 -55 -20
-35 -33 6 -3 10 -19 10 -36 0 -22 5 -29 19 -29 10 0 24 -6 30 -14 7 -8 23 -17
38 -21 14 -3 32 -13 40 -20 18 -19 28 -19 46 -1 7 8 25 16 38 18 16 2 25 11
27 26 3 18 6 21 17 12 11 -9 12 -7 9 7 -3 11 3 23 17 31 19 12 21 12 16 -2 -4
-9 -2 -16 2 -16 10 0 21 25 21 47 0 25 -32 44 -49 30 -12 -9 -13 -9 -7 0 5 9
0 13 -16 13 -13 0 -45 3 -72 6 -30 4 -46 3 -43 -3z m157 -33 c0 -5 -5 -10 -11
-10 -5 0 -7 5 -4 10 3 6 8 10 11 10 2 0 4 -4 4 -10z m-60 -100 c0 -5 -5 -10
-11 -10 -5 0 -7 5 -4 10 3 6 8 10 11 10 2 0 4 -4 4 -10z"/>
<path d="M3146 2209 c-110 -9 -193 -24 -216 -40 -11 -8 -8 -9 15 -5 17 3 109
13 205 22 199 18 450 14 614 -11 109 -17 131 -18 101 -6 -82 33 -502 56 -719
40z"/>
<path d="M1585 2194 c-16 -2 -86 -11 -155 -20 -69 -9 -132 -20 -140 -25 -20
-11 -4 -11 56 0 175 33 533 42 770 20 140 -13 179 -8 84 11 -62 12 -548 23
-615 14z"/>
<path d="M2946 2101 c-3 -4 45 -11 107 -14 190 -10 378 -47 581 -117 101 -34
99 -33 91 -21 -7 13 -262 95 -355 115 -134 28 -415 53 -424 37z"/>
<path d="M1982 2089 c-152 -19 -422 -96 -511 -144 -45 -24 -10 -16 86 20 169
64 402 114 538 115 33 1 78 5 100 9 55 12 -126 12 -213 0z"/>
<path d="M2546 2063 c-24 -20 -37 -24 -78 -21 -26 1 -48 1 -48 -2 0 -3 14 -41
31 -85 17 -44 33 -90 36 -103 3 -13 12 -26 19 -29 8 -3 12 -8 10 -12 -8 -12
65 -12 100 -1 46 16 69 48 88 127 10 38 21 80 25 94 l8 27 -59 -5 c-50 -5 -62
-3 -81 15 l-22 21 -29 -26z m117 -93 c18 -88 -19 -151 -83 -144 -54 6 -68 20
-75 72 -3 26 -8 56 -10 67 -5 25 3 36 40 55 25 13 38 14 75 4 42 -10 45 -14
53 -54z"/>
<path d="M870 1134 c0 -5 7 -18 15 -28 8 -11 15 -16 15 -10 0 5 -7 18 -15 28
-8 11 -15 16 -15 10z"/>
<path d="M1162 1091 c-16 -51 -15 -70 3 -77 8 -4 12 -10 9 -15 -3 -5 -1 -9 4
-9 6 0 8 -9 5 -20 -4 -14 0 -20 11 -20 10 0 15 -4 12 -9 -6 -9 22 -26 37 -22
5 1 6 -3 2 -9 -5 -8 -12 -7 -23 2 -16 12 -16 11 -1 -7 9 -11 14 -26 12 -32 -4
-11 7 -17 28 -15 3 1 12 -15 21 -34 15 -33 15 -34 -3 -29 -11 4 -19 2 -19 -4
0 -6 18 -11 40 -11 25 0 40 5 40 13 0 13 -156 337 -163 337 -2 0 -9 -17 -15
-39z"/>
<path d="M1112 942 c-24 -33 -20 -46 4 -14 11 14 13 15 14 2 0 -9 -5 -21 -12
-28 -9 -9 -9 -12 0 -12 13 0 25 40 20 67 -3 15 -7 12 -26 -15z"/>
<path d="M4042 814 c-7 -14 -8 -23 -2 -19 15 9 32 45 22 45 -5 0 -14 -12 -20
-26z"/>
<path d="M1019 813 c-13 -16 -12 -17 4 -4 9 7 17 15 17 17 0 8 -8 3 -21 -13z"/>
<path d="M1165 802 c-2 -2 -9 -5 -17 -6 -26 -4 -58 -27 -58 -42 0 -8 -4 -12
-10 -9 -5 3 -10 0 -10 -7 0 -9 -3 -9 -10 2 -7 11 -8 6 -4 -17 4 -22 3 -33 -5
-33 -6 0 -10 -3 -10 -7 4 -22 -3 -25 -17 -7 -15 18 -15 18 -5 -3 13 -26 14
-36 3 -29 -4 3 -13 -9 -20 -26 l-11 -30 25 27 c13 14 33 44 44 65 25 50 87
100 122 100 16 0 28 5 28 13 0 11 -35 19 -45 9z"/>
<path d="M956 596 c10 -8 21 -12 24 -10 5 6 -21 24 -34 24 -6 0 -1 -6 10 -14z"/>
</g>
</svg>
